<?xml version="1.0" encoding="utf-8"?> 
<!DOCTYPE svg PUBLIC "-//W3C//DTD SVG 1.1//EN" "http://www.w3.org/Graphics/SVG/1.1/DTD/svg11.dtd">
<svg width="146mm" height="41mm" viewBox="0 0 1468 411" xmlns="http://www.w3.org/2000/svg" xmlns:xlink="http://www.w3.org/1999/xlink"><defs>

		<g id="CDArrow5">
			<path d="M 35 0 L 40 20L 0 0L 40 -20L 35 0L 35 0">
			</path>
		</g>
		<marker id="CDArrow5_rgb_0_0_0__size_0_end" markerUnits="userSpaceOnUse" markerHeight="20" markerWidth="20" refX="27" refY="0" orient="auto" viewBox="-8 -28 56 56">
			<use xlink:href="#CDArrow5" fill="rgb(0,0,0)" stroke="rgb(0,0,0)" stroke-width="8.0000000000000000" x="0" y="0" transform="translate(35,0) rotate(180)">
			</use>
		</marker>
		<marker id="CDArrow5_rgb_0_0_0__size_1" markerUnits="userSpaceOnUse" markerHeight="30" markerWidth="30" refX="1" refY="0" orient="auto" viewBox="-1 -21 42 42">
			<use xlink:href="#CDArrow5" fill="rgb(0,0,0)" stroke="rgb(0,0,0)" stroke-width="1.3333333333333333" x="0" y="0">
			</use>
		</marker>
		<marker id="CDArrow5_rgb_0_0_0__size_1_end" markerUnits="userSpaceOnUse" markerHeight="30" markerWidth="30" refX="33" refY="0" orient="auto" viewBox="-1 -21 42 42">
			<use xlink:href="#CDArrow5" fill="rgb(0,0,0)" stroke="rgb(0,0,0)" stroke-width="1.3333333333333333" x="0" y="0" transform="translate(35,0) rotate(180)">
			</use>
		</marker>
	</defs>
	<svg x="0" y="0" width="1468" height="411">
		<g transform="translate(10.00,10.00)">
		</g>
	</svg>
	<svg x="0" y="0" width="1468" height="411">
		<g transform="translate(125.06,68.05) scale(1,1) rotate(0.00,157.61,47.19) " fill="none" fill-opacity="1.0000000000000000" stroke="none" stroke-width="2" stroke-linecap="round" stroke-opacity="1.0000000000000000">
			<g transform="translate(0.00,0.00) scale(1,1) rotate(0.00,157.61,47.19) ">
				<text stroke-width="0">
					<tspan font-size="127" font-family="Courier New" font-weight="100" stroke="rgb(37,37,37)" fill="rgb(37,37,37)" opacity="1.0000000000000000" x="5.18 81.40 157.61 233.82 " y="76.09 76.09 76.09 76.09 ">
						\ref</tspan>
				</text>
			</g>
		</g>
		<g transform="translate(209.65,263.24) scale(1,1) rotate(0.00,42.88,46.17) " fill="rgb(255,246,153)" fill-opacity="1.0000000000000000" stroke="rgb(0,0,0)" stroke-width="5" stroke-linecap="round" stroke-opacity="1.0000000000000000">
			<path fill-rule="evenodd" marker-start="none" marker-end="none" d="M 0.00 0.00 L 0.00 92.34 L 85.76 92.34 L 85.76 0.00 L 0.00 0.00  Z">
			</path>
			<g transform="translate(0.00,0.00) scale(1,1) rotate(0.00,42.88,46.17) ">
				<text stroke-width="0">
					<tspan font-size="98" font-family="Courier New" font-weight="100" stroke="rgb(37,37,37)" fill="rgb(37,37,37)" opacity="1.0000000000000000" x="13.24 " y="68.74 ">
						2</tspan>
				</text>
			</g>
		</g>
		<g transform="translate(370.02,263.24) scale(1,1) rotate(0.00,42.88,46.17) " fill="rgb(255,246,153)" fill-opacity="1.0000000000000000" stroke="rgb(0,0,0)" stroke-width="5" stroke-linecap="round" stroke-opacity="1.0000000000000000" marker-end="url(#CDArrow5_rgb_0_0_0__size_0_end)">
			<path fill-rule="evenodd" marker-start="none" marker-end="none" d="M 0.00 0.00 L 0.00 92.34 L 85.76 92.34 L 85.76 0.00 L -4.00 0.00  Z">
			</path>
			<g transform="translate(0.00,0.00) scale(1,1) rotate(0.00,42.88,46.17) ">
				<text stroke-width="0">
					<tspan font-size="98" font-family="Courier New" font-weight="100" stroke="rgb(37,37,37)" fill="rgb(37,37,37)" opacity="1.0000000000000000" x="13.24 " y="68.74 ">
						3</tspan>
				</text>
			</g>
		</g>
		<g transform="translate(495.74,67.36) scale(1,1) rotate(0.00,120.23,47.88) " fill="none" fill-opacity="1.0000000000000000" stroke="none" stroke-width="5" stroke-linecap="round" stroke-opacity="1.0000000000000000">
			<g transform="translate(0.00,0.00) scale(1,1) rotate(0.00,120.23,47.88) ">
				<text stroke-width="0">
					<tspan font-size="127" font-family="Courier New" font-weight="100" stroke="rgb(37,37,37)" fill="rgb(37,37,37)" opacity="1.0000000000000000" x="5.91 82.12 158.33 " y="76.77 76.77 76.77 ">
						2CO</tspan>
				</text>
			</g>
		</g>
		<g transform="translate(799.41,63.20) scale(1,1) rotate(0.00,44.36,52.04) " fill="none" fill-opacity="1.0000000000000000" stroke="none" stroke-width="5" stroke-linecap="round" stroke-opacity="1.0000000000000000">
			<g transform="translate(0.00,0.00) scale(1,1) rotate(0.00,44.36,52.04) ">
				<text stroke-width="0">
					<tspan font-size="127" font-family="Courier New" font-weight="100" stroke="rgb(37,37,37)" fill="rgb(37,37,37)" opacity="1.0000000000000000" x="6.26 " y="80.93 ">
						5</tspan>
				</text>
			</g>
		</g>
		<g transform="translate(855.25,64.24) scale(1,1) rotate(0.00,65.17,50.99) " fill="none" fill-opacity="1.0000000000000000" stroke="none" stroke-width="5" stroke-linecap="round" stroke-opacity="1.0000000000000000">
			<g transform="translate(0.00,0.00) scale(1,1) rotate(0.00,65.17,50.99) ">
				<text stroke-width="0">
					<tspan font-size="127" font-family="Courier New" font-weight="100" stroke="rgb(37,37,37)" fill="rgb(37,37,37)" opacity="1.0000000000000000" x="27.07 " y="79.89 ">
						:</tspan>
				</text>
			</g>
		</g>
		<g transform="translate(963.25,63.70) scale(1,1) rotate(0.00,196.96,51.54) " fill="none" fill-opacity="1.0000000000000000" stroke="none" stroke-width="5" stroke-linecap="round" stroke-opacity="1.0000000000000000">
			<g transform="translate(0.00,0.00) scale(1,1) rotate(0.00,196.96,51.54) ">
				<text stroke-width="0">
					<tspan font-size="127" font-family="Courier New" font-weight="100" stroke="rgb(37,37,37)" fill="rgb(37,37,37)" opacity="1.0000000000000000" x="6.43 82.64 158.86 235.07 311.28 " y="80.44 80.44 80.44 80.44 80.44 ">
						20-21</tspan>
				</text>
			</g>
		</g>
		<g transform="translate(214.99,212.83) scale(1,1) rotate(106.64,52.61,0.00) ">
			<path stroke="rgb(0,0,0)" stroke-width="2" stroke-linecap="round" stroke-opacity="1.0000000000000000" marker-start="url(#CDArrow5_rgb_0_0_0__size_1)" d="M 1.00 -0.00 L 105.22 0.00 " fill="none">
			</path>
		</g>
		<g transform="translate(385.92,214.96) scale(1,1) rotate(-58.41,56.67,0.00) ">
			<path stroke="rgb(0,0,0)" stroke-width="2" stroke-linecap="round" stroke-opacity="1.0000000000000000" marker-end="url(#CDArrow5_rgb_0_0_0__size_1_end)" d="M 0.00 0.00 L 112.35 -0.00 " fill="none">
			</path>
		</g>
		<g transform="translate(530.39,263.24) scale(1,1) rotate(0.00,42.88,46.17) " fill="rgb(255,246,153)" fill-opacity="1.0000000000000000" stroke="rgb(0,0,0)" stroke-width="5" stroke-linecap="round" stroke-opacity="1.0000000000000000" marker-end="url(#CDArrow5_rgb_0_0_0__size_0_end)">
			<path fill-rule="evenodd" marker-start="none" marker-end="none" d="M 0.00 0.00 L 0.00 92.34 L 85.76 92.34 L 85.76 0.00 L -4.00 0.00  Z">
			</path>
			<g transform="translate(0.00,0.00) scale(1,1) rotate(0.00,42.88,46.17) ">
				<text stroke-width="0">
					<tspan font-size="98" font-family="Courier New" font-weight="100" stroke="rgb(37,37,37)" fill="rgb(37,37,37)" opacity="1.0000000000000000" x="13.24 " y="68.74 ">
						4</tspan>
				</text>
			</g>
		</g>
		<g transform="translate(540.20,213.18) scale(1,1) rotate(-66.90,54.42,0.00) ">
			<path stroke="rgb(0,0,0)" stroke-width="2" stroke-linecap="round" stroke-opacity="1.0000000000000000" marker-end="url(#CDArrow5_rgb_0_0_0__size_1_end)" d="M -0.00 0.00 L 107.85 -0.00 " fill="none">
			</path>
		</g>
		<g transform="translate(690.76,263.24) scale(1,1) rotate(0.00,42.88,46.17) " fill="rgb(255,246,153)" fill-opacity="1.0000000000000000" stroke="rgb(0,0,0)" stroke-width="5" stroke-linecap="round" stroke-opacity="1.0000000000000000" marker-end="url(#CDArrow5_rgb_0_0_0__size_0_end)">
			<path fill-rule="evenodd" marker-start="none" marker-end="none" d="M 0.00 0.00 L 0.00 92.34 L 85.76 92.34 L 85.76 0.00 L -4.00 0.00  Z">
			</path>
			<g transform="translate(0.00,0.00) scale(1,1) rotate(0.00,42.88,46.17) ">
				<text stroke-width="0">
					<tspan font-size="98" font-family="Courier New" font-weight="100" stroke="rgb(37,37,37)" fill="rgb(37,37,37)" opacity="1.0000000000000000" x="13.24 " y="68.74 ">
						5</tspan>
				</text>
			</g>
		</g>
		<g transform="translate(700.59,216.29) scale(1,1) rotate(-70.28,49.88,0.00) ">
			<path stroke="rgb(0,0,0)" stroke-width="2" stroke-linecap="round" stroke-opacity="1.0000000000000000" marker-end="url(#CDArrow5_rgb_0_0_0__size_1_end)" d="M -0.00 -0.00 L 98.75 -0.00 " fill="none">
			</path>
		</g>
		<g transform="translate(851.13,263.24) scale(1,1) rotate(0.00,42.88,46.17) " fill="rgb(255,246,153)" fill-opacity="1.0000000000000000" stroke="rgb(0,0,0)" stroke-width="5" stroke-linecap="round" stroke-opacity="1.0000000000000000" marker-end="url(#CDArrow5_rgb_0_0_0__size_0_end)">
			<path fill-rule="evenodd" marker-start="none" marker-end="none" d="M 0.00 0.00 L 0.00 92.34 L 85.76 92.34 L 85.76 0.00 L -4.00 0.00  Z">
			</path>
			<g transform="translate(0.00,0.00) scale(1,1) rotate(0.00,42.88,46.17) ">
				<text stroke-width="0">
					<tspan font-size="98" font-family="Courier New" font-weight="100" stroke="rgb(37,37,37)" fill="rgb(37,37,37)" opacity="1.0000000000000000" x="13.24 " y="68.74 ">
						6</tspan>
				</text>
			</g>
		</g>
		<g transform="translate(814.73,215.26) scale(1,1) rotate(-117.63,54.16,0.00) ">
			<path stroke="rgb(0,0,0)" stroke-width="2" stroke-linecap="round" stroke-opacity="1.0000000000000000" marker-end="url(#CDArrow5_rgb_0_0_0__size_1_end)" d="M -0.00 -0.00 L 107.31 -0.00 " fill="none">
			</path>
		</g>
		<g transform="translate(1011.50,263.24) scale(1,1) rotate(0.00,42.88,46.17) " fill="rgb(255,246,153)" fill-opacity="1.0000000000000000" stroke="rgb(0,0,0)" stroke-width="5" stroke-linecap="round" stroke-opacity="1.0000000000000000" marker-end="url(#CDArrow5_rgb_0_0_0__size_0_end)">
			<path fill-rule="evenodd" marker-start="none" marker-end="none" d="M 0.00 0.00 L 0.00 92.34 L 85.76 92.34 L 85.76 0.00 L -4.00 0.00  Z">
			</path>
			<g transform="translate(0.00,0.00) scale(1,1) rotate(0.00,42.88,46.17) ">
				<text stroke-width="0">
					<tspan font-size="98" font-family="Courier New" font-weight="100" stroke="rgb(37,37,37)" fill="rgb(37,37,37)" opacity="1.0000000000000000" x="13.24 " y="68.74 ">
						7</tspan>
				</text>
			</g>
		</g>
		<g transform="translate(904.71,214.73) scale(1,1) rotate(-144.09,82.70,0.00) ">
			<path stroke="rgb(0,0,0)" stroke-width="2" stroke-linecap="round" stroke-opacity="1.0000000000000000" marker-end="url(#CDArrow5_rgb_0_0_0__size_1_end)" d="M 0.00 -0.00 L 164.39 0.00 " fill="none">
			</path>
		</g>
		<g transform="translate(1171.87,263.24) scale(1,1) rotate(0.00,42.88,46.17) " fill="rgb(255,246,153)" fill-opacity="1.0000000000000000" stroke="rgb(0,0,0)" stroke-width="5" stroke-linecap="round" stroke-opacity="1.0000000000000000" marker-end="url(#CDArrow5_rgb_0_0_0__size_0_end)">
			<path fill-rule="evenodd" marker-start="none" marker-end="none" d="M 0.00 0.00 L 0.00 92.34 L 85.76 92.34 L 85.76 0.00 L -4.00 0.00  Z">
			</path>
			<g transform="translate(0.00,0.00) scale(1,1) rotate(0.00,42.88,46.17) ">
				<text stroke-width="0">
					<tspan font-size="98" font-family="Courier New" font-weight="100" stroke="rgb(37,37,37)" fill="rgb(37,37,37)" opacity="1.0000000000000000" x="13.24 " y="68.74 ">
						8</tspan>
				</text>
			</g>
		</g>
		<g transform="translate(1132.07,215.01) scale(1,1) rotate(-119.49,55.40,0.00) ">
			<path stroke="rgb(0,0,0)" stroke-width="2" stroke-linecap="round" stroke-opacity="1.0000000000000000" marker-end="url(#CDArrow5_rgb_0_0_0__size_1_end)" d="M -0.00 0.00 L 109.81 -0.00 " fill="none">
			</path>
		</g>
		<g transform="translate(1332.24,263.24) scale(1,1) rotate(0.00,42.88,46.17) " fill="rgb(255,246,153)" fill-opacity="1.0000000000000000" stroke="rgb(0,0,0)" stroke-width="5" stroke-linecap="round" stroke-opacity="1.0000000000000000" marker-end="url(#CDArrow5_rgb_0_0_0__size_0_end)">
			<path fill-rule="evenodd" marker-start="none" marker-end="none" d="M 0.00 0.00 L 0.00 92.34 L 85.76 92.34 L 85.76 0.00 L -4.00 0.00  Z">
			</path>
			<g transform="translate(0.00,0.00) scale(1,1) rotate(0.00,42.88,46.17) ">
				<text stroke-width="0">
					<tspan font-size="98" font-family="Courier New" font-weight="100" stroke="rgb(37,37,37)" fill="rgb(37,37,37)" opacity="1.0000000000000000" x="13.24 " y="68.74 ">
						9</tspan>
				</text>
			</g>
		</g>
		<g transform="translate(1327.36,216.14) scale(1,1) rotate(-90.80,47.10,0.00) ">
			<path stroke="rgb(0,0,0)" stroke-width="2" stroke-linecap="round" stroke-opacity="1.0000000000000000" marker-end="url(#CDArrow5_rgb_0_0_0__size_1_end)" d="M 0.00 -0.00 L 93.20 -0.00 " fill="none">
			</path>
		</g>
		<g transform="translate(49.28,263.24) scale(1,1) rotate(0.00,42.88,46.17) " fill="rgb(255,246,153)" fill-opacity="1.0000000000000000" stroke="rgb(0,0,0)" stroke-width="5" stroke-linecap="round" stroke-opacity="1.0000000000000000">
			<path fill-rule="evenodd" marker-start="none" marker-end="none" d="M 0.00 0.00 L 0.00 92.34 L 85.76 92.34 L 85.76 0.00 L 0.00 0.00  Z">
			</path>
			<g transform="translate(0.00,0.00) scale(1,1) rotate(0.00,42.88,46.17) ">
				<text stroke-width="0">
					<tspan font-size="98" font-family="Courier New" font-weight="100" stroke="rgb(37,37,37)" fill="rgb(37,37,37)" opacity="1.0000000000000000" x="13.24 " y="68.74 ">
						1</tspan>
				</text>
			</g>
		</g>
		<g transform="translate(49.11,216.80) scale(1,1) rotate(94.34,46.57,0.00) ">
			<path stroke="rgb(0,0,0)" stroke-width="2" stroke-linecap="round" stroke-opacity="1.0000000000000000" marker-start="url(#CDArrow5_rgb_0_0_0__size_1)" d="M 1.00 -0.00 L 93.14 -0.00 " fill="none">
			</path>
		</g>
	</svg>
</svg>
